<?xml version="1.0" encoding="UTF-8"?>
<svg id="Layer_2" data-name="Layer 2" xmlns="http://www.w3.org/2000/svg" viewBox="0 0 1712 586.36">
  <defs>
    <style>
      .cls-1 {
        fill: #fff;
      }

      .cls-2 {
        font-family: MS-UIGothic, 'MS UI Gothic';
        font-size: 450px;
      }

      .cls-3 {
        fill: none;
      }

      .cls-4, .cls-5, .cls-6 {
        font-family: MyriadPro-Regular, 'Myriad Pro';
        font-size: 250px;
      }

      .cls-5 {
        letter-spacing: .04em;
      }

      .cls-6 {
        letter-spacing: .02em;
      }
    </style>
  </defs>
  <g id="Layer_1-2" data-name="Layer 1">
    <g>
      <path class="cls-1" d="M244,477c-.6,6.4-2.68,18.4-11,29-3.42,4.36-7.14,7.52-9,9-6.04,4.82-11.92,7.5-16,9-33.67,.33-67.33,.67-101,1-4.17-.43-20.07-2.55-28-15-4.73-7.42-4.93-15.86-3-28,4.52-28.4,16.3-49.33,23-61,19.64-34.21,29.46-51.31,35-60,21.28-33.4,42.18-66.06,74-109,15.84-21.38,29.93-39.29,41-53-20.44,32.67-36.86,60.7-49,82-10.04,17.61-22.28,39.62-36,66-8.35,16.04-17.23,35.69-35,75-4.57,10.11-10.45,22.42-13,40-2.49,17.18-4.44,30.57,3,40,15.47,19.62,60,7.59,77,3,8.23-2.22,14.84-5.02,21-8,6.66-3.22,16.57-9.09,27-20Z"/>
      <path class="cls-1" d="M271,197s21.85,10.62,43,28c32.75,26.92,53.26,44.23,61,73,6.2,23.04-2,46-2,46l-27-53-9,15-13-38-11,22-8-41-34-52Z"/>
      <path class="cls-1" d="M243,188c-6.35,1.42-16.23,4.46-26.5,11.5-7.95,5.45-13.45,11.45-17,16-1.11-1.42-6.39-8.47-4-15,.24-.64,.56-1.32,1-2-4.46,3.7-9.19,8.01-14,13-6.2,6.43-11.32,12.73-15.5,18.5-1.04-3.33-2.03-8.02-1.5-13.5,.91-9.29,4.5-15.5,4.5-15.5,0,0-8.57,3.37-34,26-.9-3.09-1.87-7.79-1.5-13.5,.27-4.07,1.14-7.47,2-10-10.57,5.69-21.57,11.37-33,17-9.67,4.76-19.18,9.26-28.5,13.5,4.35-10.71,15.06-32.36,38.5-47.5,26.33-17,53.16-15.74,69-15,26.84,1.26,47.76,9.87,60.5,16.5Z"/>
      <path class="cls-1" d="M279.5,159.5c13.67-3.33,27.33-6.67,41-10l-6-10,29-1-14-15,27-1-13-12c3.06-3.43,7.96-8.09,15-12,9.25-5.13,17.88-6.56,23-7-4.4-4.16-11.95-9.93-22-11-19.37-2.07-34.86,14.7-49,30-8.63,9.34-21.25,25.28-31,49Z"/>
      <path class="cls-1" d="M255.5,177.5c-.45-7.78-2.83-31.19-21-52-21.74-24.9-50.53-28.25-58-29-28.51-2.86-49.8,8.66-57,13,16.33,5.33,32.67,10.67,49,16l-10,12,40,1-32,17,51,2-7,10s10.85-1.17,23,1c13.9,2.48,22,9,22,9Z"/>
      <path class="cls-1" d="M268.5,151.5c-3.25-6.43-7.76-14.06-14-22-5.51-7.01-11.07-12.62-16-17,4-.33,8-.67,12-1l-21-21,16,1-16-25,15,3c-1.84-7.17-4.13-14.88-7-23-2.56-7.22-5.27-13.89-8-20,6.31,1.29,17.23,4.04,26,13,8.76,8.95,13.66,20.26,17,39,3.8,21.33-4,73-4,73Z"/>
      <path class="cls-1" d="M271.5,180.5l40,29,2-13,33,35-2-34,26,27,2-21,42,25s-4.49-17.11-16-30c-26.33-29.49-63.94-32.59-70-33-21.23-1.43-57,15-57,15Z"/>
    </g>
    <text class="cls-1" transform="translate(238.34 523.86)"><tspan class="cls-6" x="0" y="0">E</tspan><tspan class="cls-5" x="126.99" y="0">T</tspan><tspan class="cls-4" x="260.74" y="0">TER</tspan><tspan class="cls-2" x="642.49" y="0">P</tspan><tspan class="cls-4" x="920.22" y="0">RESS</tspan></text>
    <rect class="cls-3" width="1712" height="547"/>
  </g>
</svg>